<svg height="466.66666" viewBox="0 0 466.66666 466.66666" width="466.66666" xmlns="http://www.w3.org/2000/svg" xmlns:xlink="http://www.w3.org/1999/xlink"><clipPath id="a"><path d="m0 350h350v-350h-350z" transform="translate(-175 -314.00001)"/></clipPath><clipPath id="b"><path d="m0 350h350v-350h-350z" transform="translate(-256.66021 -225.60161)"/></clipPath><clipPath id="c"><path d="m0 350h350v-350h-350z" transform="translate(-175 -40.000004)"/></clipPath><path clip-path="url(#a)" d="m0 0c-76.768 0-139-62.232-139-139.002 0-76.766 62.232-138.998 139-138.998s139 62.232 139 138.998c0 76.77-62.232 139.002-139 139.002" fill="#f6a" transform="matrix(1.3333333 0 0 -1.3333333 233.33333 48)"/><g fill="#fff"><path clip-path="url(#b)" d="m0 0c2.917.449 5.796.674 8.64.674 2.918 0 5.835-.225 8.753-.674l-1.122-54.87c-2.621-.448-5.125-.673-7.519-.673-2.544 0-5.088.225-7.63.673zm.449-80.678c-.449 2.767-.674 5.498-.674 8.192 0 2.692.225 5.459.674 8.303 2.767.449 5.498.673 8.191.673s5.46-.224 8.303-.673c.45-2.844.673-5.574.673-8.191 0-2.769-.223-5.537-.673-8.304-2.843-.449-5.573-.673-8.191-.673-2.769 0-5.536.224-8.303.673m-65.866 58.012c2.693.449 5.348.674 7.967.674 2.617 0 5.273-.225 7.967-.674v-30.745c0-3.068.242-5.593.729-7.574.485-1.983 1.234-3.554 2.244-4.713 1.01-1.16 2.262-1.983 3.759-2.468 1.496-.488 3.254-.73 5.273-.73 2.768 0 5.087.261 6.957.786v45.444c2.694.449 5.311.674 7.855.674 2.618 0 5.274-.225 7.967-.674v-55.768c-2.395-.824-5.554-1.627-9.482-2.412-3.926-.786-8.022-1.178-12.286-1.178-3.815 0-7.481.299-10.997.897-3.516.599-6.602 1.869-9.257 3.815-2.656 1.945-4.768 4.787-6.34 8.529-1.571 3.739-2.356 8.713-2.356 14.923zm-39.384-32.765c-4.19 1.196-7.462 2.974-9.818 5.33-2.357 2.357-3.535 5.891-3.535 10.604 0 5.684 2.037 10.136 6.115 13.352 4.077 3.216 9.631 4.826 16.663 4.826 2.918 0 5.797-.263 8.641-.785 2.841-.525 5.722-1.31 8.639-2.357-.15-1.946-.523-3.966-1.121-6.06-.599-2.094-1.31-3.926-2.133-5.498-1.796.748-3.778 1.403-5.947 1.964-2.17.561-4.451.842-6.845.842-2.544 0-4.526-.393-5.947-1.179-1.422-.785-2.132-2.039-2.132-3.758 0-1.647.505-2.806 1.515-3.479 1.011-.673 2.449-1.309 4.32-1.907l6.397-1.908c2.093-.6 3.983-1.329 5.666-2.188 1.683-.861 3.123-1.927 4.32-3.198 1.196-1.274 2.132-2.844 2.806-4.713.672-1.871 1.009-4.151 1.009-6.845 0-2.768-.58-5.349-1.74-7.742-1.16-2.395-2.843-4.471-5.049-6.227-2.207-1.759-4.88-3.143-8.023-4.153-3.142-1.01-6.695-1.514-10.659-1.514-1.796 0-3.442.056-4.938.169-1.497.111-2.936.299-4.32.56-1.385.263-2.749.58-4.096.954-1.345.373-2.804.859-4.376 1.458.15 2.021.505 4.058 1.067 6.116.56 2.056 1.29 4.057 2.187 6.003 2.469-.973 4.806-1.702 7.014-2.188 2.205-.487 4.506-.73 6.9-.73 1.047 0 2.189.094 3.423.282 1.235.185 2.374.522 3.422 1.009 1.047.486 1.926 1.122 2.637 1.908.711.785 1.066 1.812 1.066 3.086 0 1.794-.544 3.085-1.627 3.871-1.085.785-2.6 1.476-4.545 2.076zm-51.727-14.474c4.188 0 7.199 1.551 9.033 4.656 1.832 3.103 2.749 7.574 2.749 13.409s-.917 10.304-2.749 13.409c-1.834 3.103-4.845 4.657-9.033 4.657-4.115 0-7.088-1.554-8.92-4.657-1.834-3.105-2.749-7.574-2.749-13.409s.915-10.306 2.749-13.409c1.832-3.105 4.805-4.656 8.92-4.656m0-12.119c-4.713 0-8.808.768-12.286 2.3-3.479 1.533-6.36 3.664-8.641 6.396-2.282 2.729-4.003 5.928-5.161 9.594-1.161 3.664-1.739 7.63-1.739 11.894s.578 8.265 1.739 12.006c1.158 3.74 2.879 6.975 5.161 9.706 2.281 2.731 5.162 4.882 8.641 6.452 3.478 1.572 7.573 2.357 12.286 2.357s8.826-.785 12.342-2.357c3.516-1.57 6.434-3.721 8.753-6.452 2.318-2.731 4.039-5.966 5.162-9.706 1.122-3.741 1.683-7.742 1.683-12.006s-.561-8.23-1.683-11.894c-1.123-3.666-2.844-6.865-5.162-9.594-2.319-2.732-5.237-4.863-8.753-6.396-3.516-1.532-7.629-2.3-12.342-2.3" transform="matrix(1.3333333 0 0 -1.3333333 342.2136 165.86453)"/><path clip-path="url(#c)" d="m0 0c-74.559 0-135 60.441-135 134.998 0 74.561 60.441 135.002 135 135.002s135-60.441 135-135.002c0-74.557-60.441-134.998-135-134.998m0 285c-82.842 0-150-67.158-150-150.002 0-82.84 67.158-149.998 150-149.998 82.844 0 150 67.158 150 149.998 0 82.844-67.156 150.002-150 150.002" transform="matrix(1.3333333 0 0 -1.3333333 233.33333 413.33333)"/></g></svg>